<svg width="706" height="123" viewBox="0 0 706 123" fill="none" xmlns="http://www.w3.org/2000/svg">
<path d="M78 8C78 8.5 78.8 8.7 79.8 8.3C80.7 8 81.2 8 80.8 8.5C80.4 8.9 82.3 10.3 85 11.6C91 14.4 91.7 15.7 86 13.4C83.7 12.5 81.7 12 81.4 12.2C81.1 12.5 82.8 13.5 85 14.4C95.1 18.4 106.6 28.3 110.9 36.5C115.5 45.5 117.3 66.8 114.1 75.2C113.5 76.8 113.3 78 113.6 78C114 78 113.7 78.7 113 79.5C112.4 80.3 112.1 81.4 112.5 82C112.8 82.5 112.4 83 111.6 83C110.7 83 110 83.8 110 84.7C110 85.7 109.1 87.9 108.1 89.6C106.2 92.8 106.2 92.8 108.4 94.9C109.7 96.1 111.4 96.8 112.2 96.5C115.9 95.1 124.7 71 123.7 64.7C123.5 63.2 123.7 61.7 124.2 61.4C124.6 61.1 124.8 59.9 124.5 58.7C124.2 57.5 123.8 54.5 123.6 52C123.1 46.9 118.6 35.2 116.2 33C114.8 31.7 114.7 31.7 115.8 33.1C117.1 34.9 118.2 39 117.4 39C116.8 39 114.8 33.9 114.6 31.9C114.4 28.8 105.5 19 99.5 15.1C91.1 9.7 78 5.3 78 8Z" fill="#151515"/>
<path d="M64.5 21.2C63.1 24.1 62 27.2 62 28.1C62 29 61.3 30.4 60.3 31.1C58.8 32.4 58.7 32.2 59.3 28.6C59.6 26.5 60.7 23.8 61.7 22.6C63.4 20.5 63.4 20.5 61.1 22.7C59.4 24.2 58.6 26.3 58.2 29.9C58 32.7 58.2 35 58.6 35C59.6 35 62.5 29.9 63.5 26.3C63.8 25.1 65.2 22.6 66.5 20.6C67.9 18.6 68.5 16.8 67.9 16.5C67.4 16.1 65.9 18.3 64.5 21.2Z" fill="#151515"/>
<path d="M66.6 28.5C63.9 30.9 61.5 33.6 61.4 34.4C61.2 35.7 61.7 35.7 65.3 34.3C67.6 33.4 70.1 32.1 70.9 31.4C72.2 30.3 72.1 30 70.6 29.4C69.1 28.8 69.1 28.6 70.5 26.4C71.3 25.1 71.9 24 71.8 24C71.6 24 69.3 26 66.6 28.5Z" fill="#151515"/>
<path d="M69.5 33.6C68.5 34.3 67.2 35.1 66.6 35.3C66 35.5 66.6 36.7 68 37.8C69.4 39 70.1 39.9 69.6 40C69.1 40 67.8 39.3 66.8 38.3C65.2 36.9 64.6 36.9 62.5 38C60 39.3 59.9 41.3 62.4 40.4C64.3 39.7 65.4 41.8 64.1 43.4C63.2 44.5 63.2 44.8 64.2 44.7C64.9 44.7 66.3 44.8 67.4 44.8C69 45 69 45.2 66.9 47C64.9 48.6 64.8 48.9 66.3 49C68.4 49 68.5 50.6 66.4 51.4C64 52.3 63.3 52.1 65 51C66.3 50.2 66.3 50 64.9 50C62.7 50 58.5 56.6 57.7 61.2L57.1 64.9L62 64.7C66.2 64.5 66.7 64.3 65.9 62.7C65.2 61.4 65.3 61 66.5 61C67.3 61 68.5 62.2 69 63.6C70.5 67.4 70.2 68.3 68 66.7C66.3 65.5 65.2 65.5 61.1 66.6C58.4 67.3 55.1 68.4 53.9 69.1C52 70 51.5 70 50.5 68.6C48.8 66.3 47 66.6 46.9 69.2C46.9 71.4 46.8 71.4 46 69.5C45.3 68 45.1 67.9 45.1 69.1C45 71 47.4 73.3 48.3 72.4C49.1 71.5 55 74 55 75.2C55 75.7 54.3 77.4 53.5 79.1C51.4 83.1 52.5 84.4 55.8 82.1C57.3 81.1 59.9 79.9 61.5 79.6C64.1 79.1 63.8 79.4 60 81.4C57.5 82.8 54.7 84.2 53.8 84.6C52.6 85 52 86.3 52 88.5C52 90.4 51.7 92.7 51.4 93.7C50.9 95.2 51 95.2 51.9 94C52.5 93.2 53 91.3 53 89.7C53 88.2 53.4 87 53.9 87C55.1 87 56.1 89.8 55.1 90.5C53.7 91.3 53.2 95.8 54 99.3C54.7 102.3 54.8 102.2 54.9 97.8C55 95.2 55.5 92.8 56 92.5C56.6 92.2 57 90.9 57 89.7C57 85.3 58.8 84.6 59.2 88.8C59.4 91 59.3 92.7 58.9 92.5C58.3 92 56.2 99.9 55.6 104.8C55.3 107.2 55.7 108.5 57.1 109.3C58.2 110 59 111.3 59 112.2C59 114.8 51.1 114.6 43.2 111.9C37.2 109.9 35.7 108.6 38.3 107.7C38.9 107.5 39.1 106.9 38.7 106.4C38.3 105.9 37.6 106 37.2 106.6C36.2 108.1 32 109 32 107.7C32 107.1 31.7 106.9 31.4 107.3C30.8 107.8 30.1 107.3 22.6 101.1C20.3 99.2 21 100.1 24.1 103.1C31.1 109.8 35.7 113.5 37.3 113.6C38 113.6 40.8 114.7 43.5 115.9C49.8 118.8 59.6 119.7 72.4 118.7C79.6 118.2 83.3 117.4 85.6 115.9C87.4 114.8 90 113.8 91.4 113.7C93.8 113.5 98.3 110.3 106 103.3L109.5 100.1L114.8 105.3C120.1 110.6 122.2 109.9 117.2 104.5C110.4 97.1 92.1 84.6 81.3 79.9C78.9 78.9 77 77.7 77 77.3C77 76.9 81.2 76.4 86.3 76.2C97.6 75.9 101.8 75.2 99.9 73.9C98.6 73 93.7 73.2 81.9 74.6C77.7 75.1 77.2 74.9 76.6 72.8C76 70.6 75.9 70.5 74.5 72.4C73.7 73.5 73 73.9 73 73.3C73 72.6 73.5 71.8 74 71.5C74.6 71.1 74.8 70.5 74.5 70C74.2 69.5 75 68.2 76.2 67.1L78.4 65L74.6 61.1C70.8 57.2 67.6 56.6 65.8 59.4C65.3 60.2 64.7 60.1 63.9 59.3C62.9 58.3 62.9 57.5 63.8 55.6C64.8 53.4 65.3 53.2 68 54C71.3 55 71.5 54.8 69.9 51.8C69 50 69.1 49.4 70.6 48.3C71.7 47.5 71.9 47 71.1 47C70.3 47 71 46 72.5 44.8C75.1 42.7 75.2 42.6 73.4 41.2C71.6 39.9 71.6 39.8 73.8 40.5C75.1 40.9 76 40.7 76 40C76 39.2 76.6 39.2 78.1 40C81.6 41.9 82.5 40.5 79.2 38.1C77.4 36.9 76 36.4 76 37C76 37.6 75.6 37.9 75.1 37.6C74.6 37.3 74.4 36.2 74.7 35.1C75.3 32.7 72 31.8 69.5 33.6ZM69.5 70.9C69.2 71.5 67.5 72 65.7 72C62.8 72 62.7 72.1 64.6 73.6C66.4 75 66.4 75.1 64 74.4C62.6 74 60 73.2 58.2 72.6C55.1 71.5 55.2 71.5 61.1 71.3C64.5 71.3 67.7 70.7 68.3 70.1C69.6 68.8 70.5 69.4 69.5 70.9ZM72 75.1C72 75.7 72.7 76 73.5 75.7C74.3 75.3 75.2 75.5 75.5 76.1C75.9 76.6 75.8 77 75.3 76.9C74.9 76.8 73.8 76.8 73 76.9C71.8 77 71.7 77.2 72.9 77.9C73.7 78.4 73.8 79 73.2 79.4C72.6 79.7 71.7 78.6 71.1 77C70.5 75.2 70.5 74 71.1 74C71.6 74 72 74.5 72 75.1ZM89.2 87.1C91.5 88.3 95.8 90.8 98.7 92.8C103.8 96.1 103.9 96.4 102.3 98C101.3 99 100.4 99.6 100.2 99.5C100 99.3 98.5 100.5 96.9 102C95.2 103.5 92.6 105.4 91.2 106.1C89.7 106.8 87.8 108 86.9 108.7C85.4 109.9 85.2 109.2 84.8 101.8C84.5 97.2 83.3 91.2 82.2 88.3L80.2 83.1L82.6 84C83.9 84.5 86.8 85.9 89.2 87.1ZM75.1 96.2C77.3 96.8 79 97.7 79 98.1C79 98.5 79.3 99.7 79.6 100.7C80.1 102.4 80.1 102.4 78.8 100.8C78 99.9 76.2 98.8 74.7 98.5C71.3 97.6 62.8 98.8 63.5 100C63.8 100.5 63.2 101.4 62.1 101.9C59.5 103.4 59 103.3 59.6 101.6C59.9 100.8 59.4 100 58.3 99.7C56.6 99.3 56.6 99.3 58.5 98.6C59.6 98.2 61.9 97.2 63.5 96.5C67.3 94.8 70.2 94.7 75.1 96.2ZM55.5 116.9C58.5 117.8 58.5 117.8 55.9 117.9C52.1 118 47 116.9 47 115.9C47 115 51.1 115.5 55.5 116.9Z" fill="#151515"/>
<path d="M77 43.2C77 43.7 77.5 43.8 78 43.5C79.4 42.6 84.2 45.8 83.5 47C83.1 47.6 83.4 48 83.9 48C85.4 48 85.3 49.9 83.6 51.6C82.8 52.3 82 53.5 81.8 54.2C81.4 55.2 81 55.2 79.7 54.1C78.7 53.3 78 53.2 78 53.8C78 54.4 78.5 55.2 79 55.5C79.6 55.8 80 56.6 80 57.1C80 57.7 79.6 57.9 79.2 57.6C78.8 57.4 78.4 58.3 78.5 59.7C78.5 62.5 81 64.3 81 61.6C81 60.7 81.5 60 82 60C82.6 60 83 59.2 83 58.2C83 57.2 83.7 55.5 84.5 54.4C86.6 51.7 86.3 47.6 84 45.5C82.8 44.4 82.4 43.4 83 43C83.5 42.7 82.4 42.4 80.5 42.3C78.6 42.2 77 42.6 77 43.2Z" fill="#151515"/>
<path d="M75.7 46.3C75.3 47.3 75.9 47.6 77.7 47.2C79.5 46.9 79.8 46.5 78.8 45.9C77 44.7 76.3 44.8 75.7 46.3Z" fill="#151515"/>
<path d="M166.6 46.5C157.1 48.4 153 54.6 153 66.8C153 69.7 153.6 73.5 154.4 75.3C158.3 84.8 174 88.9 183.6 83.1C187.2 80.9 188.4 77.6 186.4 75.9C185.3 75 184.2 75.3 181.2 77.4C178.3 79.4 176.2 80 172.2 80C167.7 80 166.5 79.6 163.3 76.6C160 73.6 159.6 72.7 159.3 67.4C159 63.1 159.4 60.6 160.7 58C164.2 51.3 174.6 48.7 179.1 53.5C183.4 58 187.8 55.7 184.5 50.7C181.6 46.2 175 44.7 166.6 46.5Z" fill="#151515"/>
<path d="M283.8 47.3C283.1 50.7 283.9 52 286.5 52C291.2 52 292.2 46.8 287.7 45.6C284.4 44.7 284.3 44.8 283.8 47.3Z" fill="#151515"/>
<path d="M366 47.6C363.7 50.2 366.6 52 373.1 52H379V67.4C379 80.4 379.3 83.1 380.6 84.5C381.5 85.4 382.9 85.9 383.7 85.6C384.5 85.3 385.3 85 385.4 85C385.6 85 385.5 77.5 385.2 68.4L384.7 51.8L390.6 52C393.8 52.1 397.1 52.1 397.8 52.1C399.3 52 399.4 48.4 397.9 47.4C397.3 47.1 390.1 46.6 382 46.4C370 46.2 366.9 46.4 366 47.6Z" fill="#151515"/>
<path d="M461.8 47.7C461 48.7 459.1 51.5 457.6 54C456.2 56.5 454.1 59.6 453 61L451 63.5L448.5 60.5C447.1 58.8 444.6 55.1 442.9 52.2C440.2 47.7 439.4 46.9 437.2 47.2C435.7 47.4 434.4 48.2 434.2 49.1C434.1 50 437.1 55 441 60.2L448 69.8V76.9C448 83 448.3 84.1 450.1 85C453.8 87 454.9 84.8 454.4 76.7L453.9 69.5L460.9 59.5C464.8 54 467.9 48.8 467.7 48C467.4 45.8 463.6 45.6 461.8 47.7Z" fill="#151515"/>
<path d="M356.5 58.2C355.4 58.8 351.5 59.4 347.7 59.4C341.3 59.5 340.7 59.7 337.9 62.8C336.1 64.9 335 67.1 335 69.1C335 72.6 337.3 77.5 339.3 78.3C341.5 79.1 340.2 84.7 337.4 86.5C334.1 88.7 334.1 93.8 337.5 97C343.1 102.2 359 99.8 360.6 93.5C361.7 89.1 358.4 85.7 351.6 84.4C343.1 82.6 342.9 81.4 350.7 79.1C357.9 77.1 360.7 70.9 357.6 63.7C356.9 62.3 357.3 62 359.9 62C363.4 62 365.3 59.4 362.9 57.9C361 56.7 358.9 56.8 356.5 58.2ZM352.7 66.6C354.2 69 354.2 69.5 352.9 71.9C350.3 76.5 340 75.2 340 70.2C340 64 349.3 61.4 352.7 66.6ZM353.8 89.5C354.4 89.7 355 90.8 355 91.9C355 93.4 354 94.2 350.9 95C343.8 96.9 337.7 93.2 341.3 89.2C342.8 87.5 343.7 87.4 347.8 88.1C350.4 88.6 353.1 89.2 353.8 89.5Z" fill="#151515"/>
<path d="M525.6 58.8C525.4 59.2 524.8 63.3 524.4 68C523.8 74.8 523.3 76.8 521.4 78.7C516 84.1 512 80.2 512 69.4C512 60.6 511.5 59 508.4 59H506.1L506.7 69.2C507.4 80.9 507.9 82.4 512.2 84.6C516.1 86.6 520.5 85.8 524.1 82.4C526.8 79.8 526.8 79.8 527.5 82C528.4 84.7 532.6 86.8 534.2 85.2C534.9 84.5 534.6 83.2 532.9 80.9C530.9 78.1 530.5 76.2 530.4 68.6C530.2 62.5 529.8 59.5 528.8 58.9C527.2 57.8 526.3 57.8 525.6 58.8Z" fill="#151515"/>
<path d="M213.6 60.5C213.3 61.4 213 64.5 213 67.3C213 73.8 210.4 79.2 206.7 80.4C202.1 82 200.6 79.5 200 69.2L199.5 60.5H195.5C192.5 60.5 191.4 60.9 191.2 62.2C191 63.5 191.5 64 192.9 64C194.9 64 195 64.6 195 72.1C195 79.7 195.2 80.3 197.9 83.1C202 87.1 206.7 87.1 211.4 83C214.7 80 214.9 80 215.5 82C216.3 84.6 220.6 86.8 222.1 85.3C222.8 84.6 222.4 83.1 220.9 80.6C219.2 77.6 218.7 75.2 218.6 68.2C218.5 60.1 218.3 59.5 216.4 59.2C215.1 59 214 59.6 213.6 60.5Z" fill="#151515"/>
<path d="M228.3 59.7C226.5 60.4 226.7 63 228.4 63C230.7 63 231 64.2 231.3 74.4C231.6 84.2 232.6 86.8 235.4 85.7C236.7 85.2 237 83.5 237 77.6C237 66.5 239.7 62.2 244.6 65.5C246.6 66.8 247.1 66.8 248.4 65.4C250.4 63.5 250.4 62.5 248.4 60.6C246.3 58.5 242.2 58.6 238.4 60.9C235.4 62.7 235.3 62.7 234.2 60.9C233 59.1 230.8 58.6 228.3 59.7Z" fill="#151515"/>
<path d="M257.8 60.6C251.2 64.1 254 71.3 263.1 74.3C272.2 77.2 273.6 81 265.6 81C262.6 81 260.8 80.4 259.5 79C257 76.2 254 76.4 254 79.3C254 82.9 257.2 85.1 263.2 85.7C272 86.6 277.5 82.3 275.6 76.2C275 74.3 270 71.4 263.3 68.9C260 67.7 259 65.7 261.1 64.4C263.1 63.2 268.1 63.8 270.1 65.6C272.1 67.4 275 66.9 275 64.6C275 63.7 274 62.2 272.8 61C270.1 58.6 261.9 58.3 257.8 60.6Z" fill="#151515"/>
<path d="M284.3 60.6C284 61.5 284.1 67.4 284.6 73.8C285.5 85.4 285.5 85.5 288 85.5C290.1 85.5 290.5 85 290.4 82.7C290.4 81.2 290.3 75.3 290.2 69.5L290 59H287.5C286.1 59 284.7 59.7 284.3 60.6Z" fill="#151515"/>
<path d="M298.3 59.7C297.6 59.9 297 61.1 297 62.2C297 63.7 297.5 64.1 299 63.7C302.1 62.9 303.2 66.1 303 75.3C302.7 86.4 302.7 86.2 305.3 85.8C307 85.6 307.6 84.8 307.8 82C308.5 71.7 312.3 64 316.5 64C319.9 64 321 66.7 320.7 74.7C320.5 82 321.4 84.4 325 85.3C326 85.6 327.7 85.2 328.7 84.4C330.4 83.2 330.4 83 328.3 81.5C326.2 80.1 326 79 326 72.1C326 65.7 325.6 63.8 323.9 61.6C320.9 57.8 315.2 58 310.8 61.9L307.4 64.8L305.8 61.9C304.2 59.1 301.6 58.3 298.3 59.7Z" fill="#151515"/>
<path d="M410.3 60C407.5 61.1 405.5 64.3 404 69.8C403.1 73.4 403.2 74.7 404.9 78.4C408 85.5 415.2 87.9 422.6 84.4C431.5 80.2 431.8 64.1 423.2 60.1C420.5 58.8 413.4 58.8 410.3 60ZM420.7 64.5C425 67.5 424.5 77.6 419.9 80C413 83.8 406.5 75.7 410.4 68.2C413 63.1 416.8 61.8 420.7 64.5Z" fill="#151515"/>
<path d="M479.3 60C474.6 61.9 471.6 69.7 473.2 75.8C475.9 86.7 487.9 89.2 495.9 80.6C497.8 78.6 498.3 76.9 498.4 72C498.5 66.1 498.3 65.7 494.8 62.4C491.6 59.5 490.3 59 486.3 59.1C483.6 59.1 480.5 59.5 479.3 60ZM490.5 65.5C495.8 70.7 492.3 81 485.2 81C478.4 81 475.8 70.9 481.1 65.1C483.7 62.3 487.5 62.4 490.5 65.5Z" fill="#151515"/>
<path d="M1.6 1.6C0.2 3 0 9.8 0 62C0 119.2 0.0999999 121 1.9 122C3.3 122.7 102.5 123 315.2 123H626.6L656 120.5C672.2 119.1 686.1 118 687 117.9C692.2 117.6 678.8 115.9 655.5 113.9C625.7 111.3 625.6 111 654.3 109C664 108.3 671.7 107.4 671.4 107.1C671.1 106.8 661.1 105.1 649.2 103.4L627.5 100.3L672.5 99.7L650.5 96.6C625.6 93 625.8 92.5 652 91.4C675.2 90.4 678.1 89.7 664 88.2C657.7 87.6 648.5 86.7 643.7 86.4C638.9 86 634.7 85.4 634.5 85C634.2 84.6 646 83.9 660.5 83.5C675.1 83.1 687 82.4 687 82C687 81.6 674.4 80.7 659 80C643.6 79.3 631.1 78.5 631.3 78.4C631.5 78.2 644.2 77.1 659.6 76C686.8 74 694.6 73.2 693.9 72.5C693.7 72.4 680.7 71.7 665 71C649.3 70.3 635.9 69.4 635.2 69C634.5 68.7 647.5 67.3 664 66C680.5 64.7 693.5 63.3 692.9 62.9C692.3 62.5 678.8 61.9 662.9 61.5C647 61.1 633.8 60.5 633.6 60.1C633.3 59.7 649.4 57.5 669.3 55.1C689.2 52.7 705.7 50.6 706 50.3C706.3 50.1 693.4 50.1 677.5 50.4L648.5 50.9L676.3 48.1C691.6 46.5 704.4 44.9 704.7 44.6C705.1 44.3 688.5 44 667.9 43.9L630.5 43.8L666.5 38.5C686.3 35.6 703.4 33 704.5 32.7C705.6 32.5 690.8 32.1 671.5 32L636.5 31.8L664.8 29.5C680.4 28.2 693.4 26.9 693.7 26.6C694.1 26.3 693.5 26 692.4 26C691.4 26 676.3 24.9 659 23.5C641.7 22.1 626.8 21 626 20.9C624.6 20.8 637.3 18 661.8 12.9C667.4 11.7 671.9 10.5 671.6 10.3C671.1 9.8 51.4 0.1 19.8 0C6 0 2.9 0.3 1.6 1.6ZM91.2 8.8C98.2 11.5 106.4 17.6 110.4 23C124 41.5 125 44 125 57.3C125 62.9 124.3 70.6 123.5 74.4C122.1 80.9 116.3 93.9 113.4 96.9C112.3 98.1 112.7 99.1 116.5 103.1C119 105.8 121 108.4 121 108.9C121 111.4 118.9 110.5 114.5 106L109.7 101.1L105 105.6C97.5 112.8 90.6 117.1 86 117.6C83.7 117.8 80.1 118.5 78.1 119.1C75.8 119.8 69.2 120.1 61.4 119.8C50.5 119.5 47.9 119.1 44.3 117.2C42 116 39.2 115 38.1 115C33.5 115 16.5 97.7 11.6 88C9.6 84 8 80 8 79.1C8.1 78.2 9.5 80.2 11.2 83.5C16 93 23.5 101.6 29.2 104.2C30.8 104.9 32 105.9 32 106.4C32 107 32.3 107 32.9 106.5C33.4 105.9 33.6 104.2 33.3 102.7C33 101.1 32.4 100.3 32.1 100.9C31.7 101.5 30.4 101.7 29.2 101.3C28 101 27.3 100.4 27.6 99.9C27.9 99.4 28.6 99.3 29.2 99.6C30 100.1 30.1 99.7 29.6 98.5C29.1 97 29.2 96.9 30.4 97.9C31.7 99 31.8 98.6 31.3 95.3C31 93.2 30 88.6 29.1 85C27.6 78.9 27.3 78.5 24.7 78.5C23.2 78.6 22 78.2 22 77.7C22 77.3 21.5 77.2 20.9 77.6C19.9 78.2 18 76.4 18 74.7C18 73.4 20.5 74 23 76C26.6 78.8 27.3 78.5 26.7 74.6C26.3 72.1 26.6 71 27.7 70.6C30 69.7 31.2 69.9 30.5 71C30.1 71.6 29.4 71.8 28.9 71.5C28.4 71.1 28 71.8 28 72.9C28 74 28.5 75.2 29 75.5C29.6 75.9 29.9 76.9 29.8 77.8C29.6 78.9 30.1 79.4 31.1 79.2C32 79.1 33 79.7 33.4 80.5C33.7 81.4 33.6 81.9 33.1 81.6C32.6 81.3 32 81.7 31.7 82.5C31.3 83.4 31.6 83.7 32.6 83.3C33.3 83 34 83.3 34 83.9C34 84.5 33.3 85 32.4 85C31.4 85 31 85.6 31.4 86.7C31.7 87.7 32.2 90.1 32.5 92C34.4 102.9 35.2 106 36.3 106.7C37 107.1 37.1 105.1 36.8 100.6C36.4 95.7 35.7 93.5 34.4 92.4C33.1 91.3 33 91 34 91.3C34.8 91.5 36 91 36.7 90.1C37.6 88.9 37.9 88.9 38 89.8C38 90.8 38.3 90.8 39.5 89.6C40.3 88.8 41 87.7 41 87.1C41 86.5 41.6 86.3 42.4 86.6C43.2 86.9 44.1 86.7 44.5 86.1C44.8 85.5 45.9 85 46.8 85C48.2 85.1 48.1 85.4 46.1 87C44.8 88.1 44.1 89 44.4 89C44.8 89 44.6 89.9 44 91.1C43.1 92.7 42.2 93 40.3 92.5L37.7 91.9L38.3 97.2C38.7 100.1 39 103.8 39 105.3C39 106.9 39.4 107.9 40 107.5C40.6 107.2 41 107.3 41 107.9C41 108.4 40.4 109.1 39.8 109.3C39 109.7 39.1 109.9 40.2 109.9C41.1 110 42.1 109.2 42.3 108.2C42.7 106.9 42.8 107.1 42.9 108.8C43 111.6 45.9 112.8 52.8 112.8C56.3 112.8 58 112.4 58 111.5C58 110.8 57.3 110 56.6 109.7C55.8 109.4 54.6 107.2 54 104.8C53.4 102.4 52.2 100 51.3 99.3C49.4 97.8 49.5 90.4 51.5 85.7C51.9 84.7 51.7 83.3 51 82.5C50.3 81.7 50.1 81 50.6 81C51.1 81 52.2 79.7 53.2 78.1C55 74.8 54.3 74 49.1 74C47.1 74 46 73.3 45.2 71.5C43.4 67.6 43.6 67.2 48.2 66.5C53.6 65.6 56.9 63.2 57 60.2C57 57.7 60.7 51.4 63.9 48.6C66.3 46.4 66.7 44.8 64.5 45.6C63.6 46 62.6 45.3 61.9 43.6C61.2 42.2 60.1 41 59.4 41C58.6 41 57.9 38.5 57.5 33.6C56.8 26.7 57.5 21.1 58.8 22.4C59.1 22.7 60.2 22.3 61.2 21.3C62.2 20.4 63 20.1 63 20.5C63 20.9 64.4 19.4 66.1 17.1C67.9 14.6 69.8 13 70.7 13.2C73.2 13.7 73.5 16 71 16C69.8 16 69.1 16.4 69.4 16.9C69.7 17.4 69.3 18.4 68.4 19.1C66.9 20.3 63.7 27 64.3 27.6C64.5 27.8 66.3 26.6 68.4 24.9C72.5 21.4 74.1 21.7 71.7 25.4C70.1 27.8 70.1 28 73 30C74.7 31.2 76 32.9 76 33.9C76 34.8 77.5 36.4 79.3 37.5C83.7 40.1 85.1 41.6 84.5 43.3C84.2 44 84.6 45.3 85.5 46C87.2 47.4 87.6 52.5 86 53.5C85.5 53.8 85 54.7 85 55.5C85 56.3 83.9 58.6 82.5 60.6C81.1 62.6 80.2 64.5 80.5 64.8C80.8 65.1 79.6 66.2 77.9 67.2C75.3 68.8 75.1 69.2 76.4 70.5C77.2 71.3 78 72.5 78.2 73.1C78.5 73.9 80.8 73.8 86.7 72.9C93.3 71.9 95.8 71.9 99.1 72.9C105.2 74.7 102.8 75.9 91.2 76.6C81.5 77.3 78.8 78.2 82.8 79.4C83.8 79.8 88.9 82.7 94.1 85.9L103.5 91.9L103.8 88.2C103.9 86.2 104.3 83.4 104.7 82C105.3 80 105.5 80.6 106 85L106.6 90.5L108.2 87C110.7 81.5 111.5 76 109.8 76C108.9 76 108.4 75.2 108.6 73.8C108.7 72.5 108.9 71.1 108.9 70.6C109 70.2 109.9 70 111 70.3C112.7 70.7 113 70.5 112.5 68.9C112.1 67.9 112.3 67 112.8 67C113.3 67 114 65.9 114.2 64.5C114.6 62.7 114.3 62 113.1 61.9C111.8 61.8 111.8 61.7 113.3 61.3C114.6 61 115 59.8 115 56.7C114.9 46.6 110.4 34.8 103.7 27.7C98 21.5 84.4 14.2 71.5 10.5C63.9 8.3 52.9 9 43.1 12.3C35.3 14.9 34.6 14.2 41.8 11C46 9.1 49.5 8.2 59.5 6.4C61.1 6.1 62.6 5.7 62.8 5.5C63 5.3 67.9 5.4 73.7 5.6C82 6 85.7 6.6 91.2 8.8ZM46.5 31.5C51.6 36.6 48.1 44.9 40.7 45.2C35.5 45.4 32 42 32 36.9C32 29.7 41.3 26.2 46.5 31.5ZM107 42.6C107 44.5 106.6 45.1 105.6 44.7C104.8 44.4 103.9 44.6 103.7 45.3C103.5 46 103 46.2 102.6 45.9C102.3 45.6 102.4 44.2 102.9 42.9C103.4 41.6 103.9 41.2 104 42C104 43.2 104.3 43.1 105.1 41.7C106.5 39.3 107 39.6 107 42.6ZM183.3 49C186.8 52.3 187.3 53.2 186.4 54.7C184.7 57.4 182.5 57.4 179.8 54.7C176.7 51.4 173.8 50.9 167.9 52.6C162.5 54.2 161.6 55.4 160 62.6C159.1 66.5 159.2 68.2 160.5 71.6C162.3 76.5 165.2 78.7 170.8 79.6C174.8 80.2 182 77.8 182 75.9C182 74.3 187 75 187.7 76.6C188.5 78.8 187.1 81 182.9 83.8C179.9 85.9 178.5 86.1 171.9 85.8C162.3 85.4 156.9 82.2 153.8 75.3C151 69 151.7 59.9 155.4 53.6C159.2 47.2 163.3 45.2 173.3 45.1C178.7 45 179.3 45.3 183.3 49ZM289.8 46.2C293 49.4 288 54.9 284.5 52C283 50.7 282.5 46.9 283.7 45.7C284.8 44.6 288.5 44.9 289.8 46.2ZM467.6 46.4C469 47.5 469.2 48.3 468.5 49.4C468 50.2 464.7 54.9 461.3 59.8L455.1 68.7L454.5 85.5H448.5L448 77.9C447.5 71.7 446.9 69.5 444.7 66.4C443.2 64.2 440 59.7 437.5 56.2C433.8 51 433.2 49.5 434 47.9C434.6 46.8 436.1 46 437.5 46C439.4 46 440.7 47.4 443.9 52.8C448.2 60.2 450.3 62.5 451.9 61.6C452.4 61.2 454.6 58.2 456.6 54.7C462.7 44.5 463.8 43.7 467.6 46.4ZM105 49.1C105 50.5 105.3 53.7 105.6 56.1L106.2 60.6L101.5 60.8C97.7 60.9 96.9 60.7 97.4 59.5C97.7 58.7 97.5 58 97 58C95.3 58 95.9 56.3 97.8 55.5C98.9 55.1 100 55.6 100.9 56.9C103 60.2 104 59.4 104 54.4C104 50.9 103.5 49.4 101.8 48L99.5 46.2L102.3 46.3C104.5 46.5 105 47 105 49.1ZM398.6 47.4C400.1 48.6 400.3 49.2 399.4 50.7C398.4 52.2 397.1 52.5 392.1 52.3L386 52.2V86.1L382.8 85.8L379.5 85.5L378.7 74.5C378.3 68.4 378.1 61.1 378.3 58.2L378.7 53H373.8C371.1 53 368 52.5 366.9 52C365 51 364.3 48 365.7 46.7C366 46.3 373.1 46 381.5 46C393.1 46 397.1 46.3 398.6 47.4ZM101.4 48.9C101.7 49.3 101.7 50 101.4 50.3C100.6 51.1 98 50 98 48.9C98 47.8 100.7 47.7 101.4 48.9ZM40.4 52.6C40.8 53.9 41.7 55 42.5 55C44.1 55 44.4 56.7 43.4 59.4C42.9 60.7 42.5 60.8 41.4 59.9C40.2 59 40.2 58.4 41.2 57.1C42.1 56 41.8 56.1 40.3 57.4C38.7 58.7 38 60.6 37.7 64.4C37.5 67.2 37.4 65.8 37.5 61.3C37.6 56.8 37.3 53.3 36.9 53.5C36.5 53.8 36 53.1 35.7 52.1C35.4 50.7 35.8 50.2 37.5 50.2C39.1 50.2 40 51 40.4 52.6ZM646.3 51.7C645 51.9 642.8 51.9 641.3 51.7C639.7 51.5 640.8 51.3 643.5 51.3C646.3 51.3 647.5 51.5 646.3 51.7ZM112.3 52.7C111.6 52.9 111 53.6 111 54.1C111 54.7 111.5 54.8 112 54.5C112.6 54.2 113 54.6 113 55.5C113 56.9 112.7 56.9 109.9 55.3C106.9 53.5 106.9 53.5 109.2 52.8C111.9 52.1 114 51.9 112.3 52.7ZM363.8 59.7C364.1 61.7 363.7 62 361 62C358.3 62 357.9 62.3 358.5 63.7C361.8 72.1 358.1 78.4 348.8 80.4C344.5 81.4 345.5 82.7 350.9 83.4C357.5 84.3 361 87.1 361 91.6C361 96.2 358.4 98.5 351.6 100.1C344.7 101.6 339.1 100.3 336.1 96.3C333.3 92.9 333.5 89.7 336.5 86.9C337.8 85.6 339 83.7 339 82.8C339 81.9 339.5 80.8 340 80.5C340.6 80.2 339.7 78.8 338 77.4C333.9 73.9 333.1 69.1 336 64.4C339 59.7 343.8 57.6 350 58.5C353.2 58.9 355 58.8 355.5 58C355.9 57.4 357.8 57 359.8 57.2C362.8 57.4 363.6 58 363.8 59.7ZM218.7 59.2C219.1 59.9 219.5 64.4 219.5 69.2C219.5 76.6 219.8 78.3 221.8 81C223.7 83.5 223.9 84.4 223 85.6C221.2 87.6 220.2 87.4 217 84.1C214.2 81.3 214 81.3 212.4 83.1C211.4 84.2 208.9 85.5 206.8 86.1C203.5 87 202.4 86.8 199.6 85C195 82.2 193.6 78.3 194.3 71C194.9 65.4 194.8 65 193 65C190.1 65 189.2 62 191.5 60.4C194 58.5 197.5 58.6 199.4 60.6C200.6 61.7 201 64.1 201 69.5C201 78.7 201.5 80 205 80C209.5 80 211.6 76.4 212.3 67.5C212.7 63.3 213.2 59.4 213.6 58.9C214.4 57.6 217.8 57.8 218.7 59.2ZM234.1 59.9C236.5 61.8 236.6 61.8 238.9 59.9C241.8 57.5 245.1 57.5 248 59.8C249.8 61.2 250.2 62.3 249.6 64.3C249 67 245.8 68.1 244.5 66C243.5 64.3 240.1 64.9 239 66.9C238.5 68 238 72.5 238 76.9C238 83.4 237.7 85.1 236.3 85.9C235.2 86.5 233.9 86.5 232.8 85.9C231.3 85.1 231 83.5 231 75C231 66.1 230.8 65 229 64C226.5 62.7 226.4 60.4 228.8 59.1C231.1 57.7 231.4 57.7 234.1 59.9ZM273.1 60.9C278 65.9 274.6 69 268.3 65.3C266.4 64.3 264.4 63.9 262.7 64.4C259.2 65.2 259.3 66.8 262.8 68.1C275.2 72.9 278.3 76 275.9 81.3C274.3 84.8 270.6 86.4 264.6 86.4C256.7 86.2 250.8 81.3 254 77.5C255.7 75.5 256.6 75.6 259 78.2C260.5 79.8 262.2 80.5 265 80.5C267.1 80.5 269.2 80.1 269.6 79.8C270.9 78.4 268 76.2 263.4 75.1C254.9 72.9 251.2 65.9 256.3 61.3C258.8 58.9 260.8 58.3 266.3 58.1C269.3 58 270.8 58.6 273.1 60.9ZM289.7 58.8C290.5 59.3 290.9 63.7 291.1 72.4C291.2 83.3 291 85.4 289.6 86.2C288.7 86.7 287.3 86.7 286.1 86.1C284.5 85.2 284.2 83.6 283.8 73.3C283.5 66.8 283.7 60.7 284.2 59.7C285.1 57.9 287.6 57.5 289.7 58.8ZM304.8 59.6C306 60.4 307 61.8 307 62.7C307 63.8 308 63.3 310.5 61.1C316.5 55.9 323.7 57.4 325.9 64.3C326.5 66 326.8 70.1 326.7 73.4C326.5 78.5 326.8 79.4 328.7 80.7C331.8 82.7 330.1 86 326.1 86C321.8 86 320.6 83.7 320 74.1L319.5 65.5H316.6C312.5 65.5 309.9 70.1 309.2 78.6C308.8 83.6 308.3 85.3 306.8 86.1C305.4 86.9 304.4 86.8 303.3 85.8C302.1 84.8 301.9 83.2 302.4 77.5C303.1 69.7 302.1 64.6 299.9 64.4C299.1 64.3 297.9 64.2 297.3 64.1C294.1 63.8 297.5 58 300.8 58C301.8 58 303.6 58.7 304.8 59.6ZM426.8 62.5C430.1 66.1 430.2 66.5 429.8 72.6C429.5 78.2 429 79.5 426.4 82.1C422.4 86 416.2 87.5 411.7 85.6C403.8 82.2 401 74.3 404.8 65.6C407.4 59.9 411.3 57.8 418.4 58.4C422.6 58.7 423.9 59.3 426.8 62.5ZM492 59.5C497 62.1 499 65.6 499 72.1C499 77.5 498.7 78.2 495.3 81.8C490.5 86.8 485.4 87.9 480.2 85.2C475.2 82.6 472.8 79 472.3 73.3C471.3 62.2 482.3 54.5 492 59.5ZM511 59C512.1 59.7 512.4 61.6 512.3 66.2C512.2 69.7 512.5 74.2 513.1 76.2C513.9 79.5 514.5 80 516.9 80C521.3 80 523.2 77 523.7 69.3C524.4 58.6 524.7 57.8 527.8 58.2C530.5 58.5 530.5 58.5 531 68.2C531.4 76.3 531.9 78.3 533.9 81C535.9 83.8 536 84.4 534.7 85.7C533.5 86.9 532.8 87 530.9 85.9C529.6 85.2 528 84 527.3 83.1C526.3 81.7 526 81.7 524.2 83.3C523.2 84.3 520.8 85.5 519 86C514.8 87.2 509.5 84.9 507.6 81.1C506.3 78.5 504.8 59.5 505.8 58.5C506.6 57.7 509.4 57.9 511 59ZM34.8 62.1C36.2 62.1 36.2 62.3 35 62.7C34.2 63.1 32.9 64 32.1 64.7C31 65.9 30.6 65.9 29.9 64.8C29.3 64 29.6 63.4 30.7 63.1C32 62.9 32.1 62.6 30.9 61.8C29.8 61 29.9 60.9 31.3 61.4C32.3 61.7 33.9 62 34.8 62.1ZM105.6 74.8C104.5 75.8 104.4 74.5 105 68L105.5 61.5L105.8 67.9C106 71.4 105.9 74.5 105.6 74.8ZM113 63.6C113.7 64.4 110.9 65.8 109.1 65.5C108.2 65.4 107.3 64.5 107.2 63.5C106.9 62 107.3 61.8 109.6 62.4C111.2 62.8 112.7 63.4 113 63.6ZM101 65.6C101 66.4 101.5 66.8 102 66.5C102.6 66.2 103 66.6 103 67.4C103 69.8 101 70.3 98.9 68.4C97.4 67.1 97.3 66.5 98.2 65.8C99.2 65.2 99.1 65 98 65C96.7 65 96.7 64.8 98 64.1C99.7 62.9 101 63.6 101 65.6ZM22.9 68.9C24.2 69.9 24.7 70.7 23.9 70.7C23.1 70.7 21.6 71.1 20.6 71.6C19.2 72.1 18.9 72 19.4 71.2C19.8 70.5 19.5 70 18.5 70C17.2 70 17.1 69.7 18.2 68.5C19.9 66.7 20 66.7 22.9 68.9ZM37.9 76.2C37.8 79.1 37.9 81.9 38 82.5C38.5 84.7 38 88.1 37.2 87.6C36.3 87 35.7 73.4 36.5 72C37.7 70.1 38 71.1 37.9 76.2ZM44 74C43.1 74.6 43.1 74.9 44.1 75.2C45.3 75.6 45.3 75.9 44.1 77.3C42.4 79.4 40 79.5 40 77.5C40 75 42.3 72.2 43.8 72.7C44.8 73.1 44.9 73.5 44 74ZM8.9 86.2C9 86.7 8.6 87 8.1 87C7.1 87 5 81.5 5.1 79.1C5.1 77.7 8.7 84.4 8.9 86.2ZM100.8 79.8C101 80.5 100.8 81.6 100.2 82.2C98.9 83.5 95 81.5 95 79.5C95 77.6 100 77.9 100.8 79.8ZM26.3 82.7C26.6 83.2 26.2 84 25.5 84.7C24.5 85.6 23.6 85.4 21.5 83.6C17.9 80.5 19 78.4 23 80.5C24.6 81.3 26.1 82.3 26.3 82.7ZM26.6 92.3C26.4 93 26.1 92.7 26.1 91.7C26 90.7 25.6 90.2 25 90.5C23.9 91.2 23.6 89.7 24.7 88.6C25.6 87.7 27.3 90.8 26.6 92.3ZM45.7 103.5C44.8 104.1 44.3 105 44.7 105.4C45.1 105.7 44.3 105.9 43 105.7C39.1 105.1 39.7 102.4 43.8 102.3C46.9 102.2 47.2 102.4 45.7 103.5Z" fill="#ECECEC"/>
<path d="M61 25.1C60.4 26.2 60 27.9 60.2 28.8C60.4 29.8 61 28.9 61.7 26.7C62.9 22.6 62.7 21.9 61 25.1Z" fill="#ECECEC"/>
<path d="M83.7 90.2C85.1 95.6 85.8 100.2 85.9 105.3L86 108.1L89.7 105.3C93.6 102.4 95.5 100.8 99.2 97.6L101.3 95.7L99.1 93.9C96.4 91.7 84.5 85 83.2 85C82.7 85 82.9 87.3 83.7 90.2Z" fill="#ECECEC"/>
<path d="M343.2 65.6C340.1 67.8 340.6 71.9 344.3 74C346.7 75.3 347.3 75.3 349.8 74C353 72.2 353.9 68 351.5 65.6C349.4 63.6 346.1 63.5 343.2 65.6Z" fill="#ECECEC"/>
<path d="M342.3 88.7C340.5 89.4 340.7 93.7 342.6 94.4C346.4 95.9 355 94.2 355 92.1C355 91.5 354.2 90.7 353.3 90.2C351.1 89.1 344 88.1 342.3 88.7Z" fill="#ECECEC"/>
<path d="M412.1 66.6C407.8 72.1 410.4 80 416.5 80C420.6 80 423 77.1 423 72C423 64.4 416.4 61.2 412.1 66.6Z" fill="#ECECEC"/>
<path d="M481 65.5C478.9 68 478.6 74.7 480.4 77.5C482.4 80.6 487.8 81 490.3 78.2C492.4 75.8 492.5 69.2 490.4 66.2C488.6 63.6 482.9 63.2 481 65.5Z" fill="#ECECEC"/>
</svg>
